<?xml version="1.0" standalone="no"?>
<!DOCTYPE svg PUBLIC "-//W3C//DTD SVG 20010904//EN"
 "http://www.w3.org/TR/2001/REC-SVG-20010904/DTD/svg10.dtd">
<svg version="1.0" xmlns="http://www.w3.org/2000/svg"
 width="512.000000pt" height="512.000000pt" viewBox="0 0 512.000000 512.000000"
 preserveAspectRatio="xMidYMid meet">
<metadata>
Created by potrace 1.14, written by Peter Selinger 2001-2017
</metadata>
<g transform="translate(0.000000,512.000000) scale(0.100000,-0.100000)"
fill="#000000" stroke="none">
<path d="M2315 4734 c-132 -80 -247 -148 -255 -152 -8 -3 -19 -10 -25 -15 -8
-7 -470 -283 -580 -347 -16 -9 -83 -49 -148 -89 -65 -39 -119 -71 -121 -71 -1
0 -103 -61 -226 -135 -123 -74 -224 -135 -225 -135 -2 0 -76 -44 -166 -99
l-164 -98 -3 -1682 -2 -1683 2027 4 c1116 2 2088 4 2161 6 l132 3 -2 1681 -3
1681 -27 16 c-14 9 -53 32 -85 51 -32 19 -62 37 -68 40 -5 3 -111 65 -235 139
-289 172 -646 383 -687 407 -18 11 -90 53 -160 95 -70 42 -213 127 -318 189
-104 62 -203 120 -220 130 -16 9 -83 49 -149 89 -65 39 -121 71 -123 71 -2 0
-21 11 -41 25 -20 14 -39 25 -42 24 -3 0 -113 -65 -245 -145z"/>
</g>
</svg>
